ffmpeg started on 2026-01-20 at 19:00:14
Report written to "D:\Convert\FFMetrics\reports\psnr_report-6.txt"
Log level: 32
Command line:
ffmpeg -hide_banner -nostdin -r 24000/1001 -i "F:\\Convert\\files\\[DC] Make Heroine ga Oosugiru - 07_Telegram_HEVC(220).mkv" -r 24000/1001 -i "F:\\Convert\\files\\[DC] Make Heroine ga Oosugiru - 07_Telegram.mp4" -lavfi "[0:v]settb=AVTB,setpts=PTS-STARTPTS,format=pix_fmts=yuv420p10le,fps=24000/1001,scale=1920:1080:flags=lanczos:param0=3:out_range=limited:out_color_matrix=bt709:out_chroma_loc=left,setsar=1/1,setdar=(1920/1080)*(1/1),colorspace=format=yuv420p10:range=tv:primaries=bt709:trc=bt709:space=bt709:fast=0[main];[1:v]settb=AVTB,setpts=PTS-STARTPTS,format=pix_fmts=yuv420p,fps=24000/1001,scale=1920:1080:flags=lanczos:param0=3:out_range=limited:out_color_matrix=bt709:out_chroma_loc=left,setsar=1.000,setdar=1.778,colorspace=format=yuv420p:range=tv:primaries=bt709:trc=bt709:space=bt709:fast=0[ref];[main][ref]psnr=eof_action=endall:stats_file='D\\:/Convert/FFMetrics/logs/psnr_logfile-6.txt'" -f null -
Input #0, matroska,webm, from 'F:\Convert\files\[DC] Make Heroine ga Oosugiru - 07_Telegram_HEVC(220).mkv':
  Metadata:
    COMPATIBLE_BRANDS: isomiso2avc1mp41
    MAJOR_BRAND     : isom
    MINOR_VERSION   : 512
    ENCODER         : Lavf61.7.100
  Duration: 00:24:06.79, start: -0.021000, bitrate: 867 kb/s
  Stream #0:0: Video: hevc (Main 10), yuv420p10le(tv, bt709, progressive), 1920x1080 [SAR 1:1 DAR 16:9], 23.98 fps, 23.98 tbr, 1k tbn (default)
      Metadata:
        HANDLER_NAME    : VideoHandler
        VENDOR_ID       : [0][0][0][0]
        ENCODER         : Lavc61.19.100 libx265
        BPS             : 670685
        DURATION        : 00:24:06.569708333
        NUMBER_OF_FRAMES: 34683
        NUMBER_OF_BYTES : 121274070
        _STATISTICS_WRITING_APP: mkvpropedit v94.0 ('Initiate') 64-bit
        _STATISTICS_WRITING_DATE_UTC: 2026-01-20 15:04:11
        _STATISTICS_TAGS: BPS DURATION NUMBER_OF_FRAMES NUMBER_OF_BYTES
  Stream #0:1: Audio: aac (LC), 48000 Hz, stereo, fltp (default)
      Metadata:
        HANDLER_NAME    : SoundHandler
        VENDOR_ID       : [0][0][0][0]
        ENCODER         : Lavc61.19.100 aac
        BPS             : 193194
        DURATION        : 00:24:06.784000000
        NUMBER_OF_FRAMES: 67819
        NUMBER_OF_BYTES : 34938755
        _STATISTICS_WRITING_APP: mkvpropedit v94.0 ('Initiate') 64-bit
        _STATISTICS_WRITING_DATE_UTC: 2026-01-20 15:04:11
        _STATISTICS_TAGS: BPS DURATION NUMBER_OF_FRAMES NUMBER_OF_BYTES
Input #1, mov,mp4,m4a,3gp,3g2,mj2, from 'F:\Convert\files\[DC] Make Heroine ga Oosugiru - 07_Telegram.mp4':
  Metadata:
    major_brand     : isom
    minor_version   : 512
    compatible_brands: isomiso2avc1mp41
    encoder         : Lavf60.16.100
  Duration: 00:24:06.74, start: 0.000000, bitrate: 3764 kb/s
  Stream #1:0[0x1](und): Video: h264 (High) (avc1 / 0x31637661), yuv420p(tv, bt709, progressive), 1920x1080 [SAR 1:1 DAR 16:9], 3616 kb/s, 23.98 fps, 23.98 tbr, 24k tbn (default)
      Metadata:
        handler_name    : VideoHandler
        vendor_id       : [0][0][0][0]
        encoder         : Lavc60.31.102 h264_qsv
  Stream #1:1[0x2](und): Audio: aac (HE-AACv2) (mp4a / 0x6134706D), 48000 Hz, stereo, fltp, 144 kb/s (default)
      Metadata:
        handler_name    : SoundHandler
        vendor_id       : [0][0][0][0]
Stream mapping:
  Stream #0:0 (hevc) -> settb:default
  Stream #1:0 (h264) -> settb:default
  psnr:default -> Stream #0:0 (wrapped_avframe)
  Stream #0:1 -> #0:1 (aac (native) -> pcm_s16le (native))
Output #0, null, to 'pipe:':
  Metadata:
    COMPATIBLE_BRANDS: isomiso2avc1mp41
    MAJOR_BRAND     : isom
    MINOR_VERSION   : 512
    encoder         : Lavf61.7.100
  Stream #0:0: Video: wrapped_avframe, yuv420p10le(tv, bt709, progressive), 1920x1080 [SAR 1:1 DAR 16:9], q=2-31, 200 kb/s, 23.98 fps, 23.98 tbn
      Metadata:
        encoder         : Lavc61.19.100 wrapped_avframe
  Stream #0:1: Audio: pcm_s16le, 48000 Hz, stereo, s16, 1536 kb/s (default)
      Metadata:
        HANDLER_NAME    : SoundHandler
        VENDOR_ID       : [0][0][0][0]
        _STATISTICS_TAGS: BPS DURATION NUMBER_OF_FRAMES NUMBER_OF_BYTES
        BPS             : 193194
        DURATION        : 00:24:06.784000000
        NUMBER_OF_FRAMES: 67819
        NUMBER_OF_BYTES : 34938755
        _STATISTICS_WRITING_APP: mkvpropedit v94.0 ('Initiate') 64-bit
        _STATISTICS_WRITING_DATE_UTC: 2026-01-20 15:04:11
        encoder         : Lavc61.19.100 pcm_s16le
frame=  137 fps=0.0 q=-0.0 size=N/A time=00:00:05.71 bitrate=N/A speed=11.2x    frame=  331 fps=323 q=-0.0 size=N/A time=00:00:13.80 bitrate=N/A speed=13.5x    frame=  543 fps=350 q=-0.0 size=N/A time=00:00:22.64 bitrate=N/A speed=14.6x    frame=  746 fps=362 q=-0.0 size=N/A time=00:00:31.11 bitrate=N/A speed=15.1x    frame=  924 fps=359 q=-0.0 size=N/A time=00:00:38.53 bitrate=N/A speed=  15x    frame= 1083 fps=350 q=-0.0 size=N/A time=00:00:45.17 bitrate=N/A speed=14.6x    frame= 1247 fps=346 q=-0.0 size=N/A time=00:00:52.01 bitrate=N/A speed=14.4x    frame= 1414 fps=343 q=-0.0 size=N/A time=00:00:58.97 bitrate=N/A speed=14.3x    frame= 1559 fps=335 q=-0.0 size=N/A time=00:01:05.02 bitrate=N/A speed=  14x    frame= 1726 fps=333 q=-0.0 size=N/A time=00:01:11.98 bitrate=N/A speed=13.9x    frame= 1899 fps=334 q=-0.0 size=N/A time=00:01:19.20 bitrate=N/A speed=13.9x    frame= 2058 fps=332 q=-0.0 size=N/A time=00:01:25.83 bitrate=N/A speed=13.8x    frame= 2191 fps=326 q=-0.0 size=N/A time=00:01:31.38 bitrate=N/A speed=13.6x    frame= 2355 fps=325 q=-0.0 size=N/A time=00:01:38.22 bitrate=N/A speed=13.6x    frame= 2487 fps=321 q=-0.0 size=N/A time=00:01:43.72 bitrate=N/A speed=13.4x    frame= 2649 fps=321 q=-0.0 size=N/A time=00:01:50.48 bitrate=N/A speed=13.4x    frame= 2838 fps=323 q=-0.0 size=N/A time=00:01:58.36 bitrate=N/A speed=13.5x    frame= 3020 fps=324 q=-0.0 size=N/A time=00:02:05.95 bitrate=N/A speed=13.5x    frame= 3217 fps=327 q=-0.0 size=N/A time=00:02:14.17 bitrate=N/A speed=13.7x    frame= 3414 fps=330 q=-0.0 size=N/A time=00:02:22.39 bitrate=N/A speed=13.8x    frame= 3618 fps=333 q=-0.0 size=N/A time=00:02:30.90 bitrate=N/A speed=13.9x    frame= 3819 fps=336 q=-0.0 size=N/A time=00:02:39.28 bitrate=N/A speed=  14x    frame= 4020 fps=338 q=-0.0 size=N/A time=00:02:47.66 bitrate=N/A speed=14.1x    frame= 4222 fps=340 q=-0.0 size=N/A time=00:02:56.09 bitrate=N/A speed=14.2x    frame= 4417 fps=342 q=-0.0 size=N/A time=00:03:04.22 bitrate=N/A speed=14.3x    frame= 4613 fps=343 q=-0.0 size=N/A time=00:03:12.40 bitrate=N/A speed=14.3x    frame= 4816 fps=345 q=-0.0 size=N/A time=00:03:20.86 bitrate=N/A speed=14.4x    frame= 5015 fps=347 q=-0.0 size=N/A time=00:03:29.16 bitrate=N/A speed=14.5x    frame= 5208 fps=348 q=-0.0 size=N/A time=00:03:37.21 bitrate=N/A speed=14.5x    frame= 5402 fps=349 q=-0.0 size=N/A time=00:03:45.30 bitrate=N/A speed=14.5x    frame= 5609 fps=350 q=-0.0 size=N/A time=00:03:53.94 bitrate=N/A speed=14.6x    frame= 5800 fps=351 q=-0.0 size=N/A time=00:04:01.90 bitrate=N/A speed=14.6x    frame= 5998 fps=352 q=-0.0 size=N/A time=00:04:10.16 bitrate=N/A speed=14.7x    frame= 6199 fps=353 q=-0.0 size=N/A time=00:04:18.54 bitrate=N/A speed=14.7x    frame= 6398 fps=354 q=-0.0 size=N/A time=00:04:26.84 bitrate=N/A speed=14.8x    frame= 6590 fps=354 q=-0.0 size=N/A time=00:04:34.85 bitrate=N/A speed=14.8x    frame= 6795 fps=356 q=-0.0 size=N/A time=00:04:43.40 bitrate=N/A speed=14.8x    frame= 6996 fps=356 q=-0.0 size=N/A time=00:04:51.79 bitrate=N/A speed=14.9x    frame= 7191 fps=357 q=-0.0 size=N/A time=00:04:59.92 bitrate=N/A speed=14.9x    frame= 7382 fps=357 q=-0.0 size=N/A time=00:05:07.89 bitrate=N/A speed=14.9x    frame= 7580 fps=358 q=-0.0 size=N/A time=00:05:16.14 bitrate=N/A speed=14.9x    frame= 7769 fps=358 q=-0.0 size=N/A time=00:05:24.03 bitrate=N/A speed=14.9x    frame= 7965 fps=358 q=-0.0 size=N/A time=00:05:32.20 bitrate=N/A speed=14.9x    frame= 8155 fps=359 q=-0.0 size=N/A time=00:05:40.13 bitrate=N/A speed=  15x    frame= 8352 fps=359 q=-0.0 size=N/A time=00:05:48.34 bitrate=N/A speed=  15x    frame= 8548 fps=359 q=-0.0 size=N/A time=00:05:56.52 bitrate=N/A speed=  15x    frame= 8741 fps=360 q=-0.0 size=N/A time=00:06:04.57 bitrate=N/A speed=  15x    frame= 8934 fps=360 q=-0.0 size=N/A time=00:06:12.62 bitrate=N/A speed=  15x    frame= 9131 fps=360 q=-0.0 size=N/A time=00:06:20.83 bitrate=N/A speed=  15x    frame= 9330 fps=361 q=-0.0 size=N/A time=00:06:29.13 bitrate=N/A speed=15.1x    frame= 9528 fps=362 q=-0.0 size=N/A time=00:06:37.39 bitrate=N/A speed=15.1x    frame= 9724 fps=362 q=-0.0 size=N/A time=00:06:45.57 bitrate=N/A speed=15.1x    frame= 9927 fps=362 q=-0.0 size=N/A time=00:06:54.03 bitrate=N/A speed=15.1x    frame=10121 fps=363 q=-0.0 size=N/A time=00:07:02.13 bitrate=N/A speed=15.1x    frame=10316 fps=363 q=-0.0 size=N/A time=00:07:10.26 bitrate=N/A speed=15.1x    frame=10510 fps=363 q=-0.0 size=N/A time=00:07:18.35 bitrate=N/A speed=15.1x    frame=10700 fps=363 q=-0.0 size=N/A time=00:07:26.27 bitrate=N/A speed=15.2x    frame=10898 fps=364 q=-0.0 size=N/A time=00:07:34.53 bitrate=N/A speed=15.2x    frame=11092 fps=364 q=-0.0 size=N/A time=00:07:42.62 bitrate=N/A speed=15.2x    frame=11277 fps=364 q=-0.0 size=N/A time=00:07:50.34 bitrate=N/A speed=15.2x    frame=11476 fps=364 q=-0.0 size=N/A time=00:07:58.64 bitrate=N/A speed=15.2x    frame=11670 fps=364 q=-0.0 size=N/A time=00:08:06.73 bitrate=N/A speed=15.2x    frame=11870 fps=365 q=-0.0 size=N/A time=00:08:15.07 bitrate=N/A speed=15.2x    frame=12068 fps=365 q=-0.0 size=N/A time=00:08:23.33 bitrate=N/A speed=15.2x    frame=12268 fps=365 q=-0.0 size=N/A time=00:08:31.67 bitrate=N/A speed=15.2x    frame=12466 fps=366 q=-0.0 size=N/A time=00:08:39.93 bitrate=N/A speed=15.3x    frame=12658 fps=366 q=-0.0 size=N/A time=00:08:47.94 bitrate=N/A speed=15.3x    frame=12861 fps=366 q=-0.0 size=N/A time=00:08:56.41 bitrate=N/A speed=15.3x    frame=13057 fps=366 q=-0.0 size=N/A time=00:09:04.58 bitrate=N/A speed=15.3x    frame=13252 fps=367 q=-0.0 size=N/A time=00:09:12.71 bitrate=N/A speed=15.3x    frame=13447 fps=367 q=-0.0 size=N/A time=00:09:20.85 bitrate=N/A speed=15.3x    frame=13639 fps=367 q=-0.0 size=N/A time=00:09:28.85 bitrate=N/A speed=15.3x    frame=13836 fps=367 q=-0.0 size=N/A time=00:09:37.07 bitrate=N/A speed=15.3x    frame=14039 fps=367 q=-0.0 size=N/A time=00:09:45.54 bitrate=N/A speed=15.3x    frame=14224 fps=367 q=-0.0 size=N/A time=00:09:53.25 bitrate=N/A speed=15.3x    frame=14419 fps=367 q=-0.0 size=N/A time=00:10:01.39 bitrate=N/A speed=15.3x    frame=14606 fps=367 q=-0.0 size=N/A time=00:10:09.19 bitrate=N/A speed=15.3x    frame=14802 fps=367 q=-0.0 size=N/A time=00:10:17.36 bitrate=N/A speed=15.3x    frame=14998 fps=368 q=-0.0 size=N/A time=00:10:25.54 bitrate=N/A speed=15.3x    frame=15170 fps=367 q=-0.0 size=N/A time=00:10:32.71 bitrate=N/A speed=15.3x    frame=15364 fps=367 q=-0.0 size=N/A time=00:10:40.80 bitrate=N/A speed=15.3x    frame=15560 fps=367 q=-0.0 size=N/A time=00:10:48.98 bitrate=N/A speed=15.3x    frame=15754 fps=368 q=-0.0 size=N/A time=00:10:57.07 bitrate=N/A speed=15.3x    frame=15954 fps=368 q=-0.0 size=N/A time=00:11:05.41 bitrate=N/A speed=15.3x    frame=16148 fps=368 q=-0.0 size=N/A time=00:11:13.50 bitrate=N/A speed=15.3x    frame=16341 fps=368 q=-0.0 size=N/A time=00:11:21.55 bitrate=N/A speed=15.3x    frame=16537 fps=368 q=-0.0 size=N/A time=00:11:29.73 bitrate=N/A speed=15.4x    frame=16740 fps=368 q=-0.0 size=N/A time=00:11:38.19 bitrate=N/A speed=15.4x    frame=16931 fps=368 q=-0.0 size=N/A time=00:11:46.16 bitrate=N/A speed=15.4x    frame=17132 fps=369 q=-0.0 size=N/A time=00:11:54.54 bitrate=N/A speed=15.4x    frame=17323 fps=369 q=-0.0 size=N/A time=00:12:02.51 bitrate=N/A speed=15.4x    frame=17520 fps=369 q=-0.0 size=N/A time=00:12:10.73 bitrate=N/A speed=15.4x    frame=17709 fps=369 q=-0.0 size=N/A time=00:12:18.61 bitrate=N/A speed=15.4x    frame=17897 fps=369 q=-0.0 size=N/A time=00:12:26.45 bitrate=N/A speed=15.4x    frame=18102 fps=369 q=-0.0 size=N/A time=00:12:35.00 bitrate=N/A speed=15.4x    frame=18290 fps=369 q=-0.0 size=N/A time=00:12:42.84 bitrate=N/A speed=15.4x    frame=18471 fps=369 q=-0.0 size=N/A time=00:12:50.39 bitrate=N/A speed=15.4x    frame=18676 fps=369 q=-0.0 size=N/A time=00:12:58.94 bitrate=N/A speed=15.4x    frame=18878 fps=369 q=-0.0 size=N/A time=00:13:07.36 bitrate=N/A speed=15.4x    frame=19074 fps=369 q=-0.0 size=N/A time=00:13:15.54 bitrate=N/A speed=15.4x    frame=19276 fps=370 q=-0.0 size=N/A time=00:13:23.96 bitrate=N/A speed=15.4x    frame=19479 fps=370 q=-0.0 size=N/A time=00:13:32.43 bitrate=N/A speed=15.4x    frame=19676 fps=370 q=-0.0 size=N/A time=00:13:40.65 bitrate=N/A speed=15.4x    frame=19869 fps=370 q=-0.0 size=N/A time=00:13:48.70 bitrate=N/A speed=15.4x    frame=20072 fps=370 q=-0.0 size=N/A time=00:13:57.16 bitrate=N/A speed=15.4x    frame=20278 fps=370 q=-0.0 size=N/A time=00:14:05.76 bitrate=N/A speed=15.5x    frame=20465 fps=370 q=-0.0 size=N/A time=00:14:13.56 bitrate=N/A speed=15.4x    frame=20649 fps=370 q=-0.0 size=N/A time=00:14:21.23 bitrate=N/A speed=15.4x    frame=20852 fps=370 q=-0.0 size=N/A time=00:14:29.70 bitrate=N/A speed=15.5x    frame=21052 fps=371 q=-0.0 size=N/A time=00:14:38.04 bitrate=N/A speed=15.5x    frame=21246 fps=371 q=-0.0 size=N/A time=00:14:46.13 bitrate=N/A speed=15.5x    frame=21442 fps=371 q=-0.0 size=N/A time=00:14:54.31 bitrate=N/A speed=15.5x    frame=21635 fps=371 q=-0.0 size=N/A time=00:15:02.35 bitrate=N/A speed=15.5x    frame=21844 fps=371 q=-0.0 size=N/A time=00:15:11.07 bitrate=N/A speed=15.5x    frame=22037 fps=371 q=-0.0 size=N/A time=00:15:19.12 bitrate=N/A speed=15.5x    frame=22234 fps=371 q=-0.0 size=N/A time=00:15:27.34 bitrate=N/A speed=15.5x    frame=22433 fps=371 q=-0.0 size=N/A time=00:15:35.64 bitrate=N/A speed=15.5x    frame=22633 fps=372 q=-0.0 size=N/A time=00:15:43.98 bitrate=N/A speed=15.5x    frame=22817 fps=371 q=-0.0 size=N/A time=00:15:51.65 bitrate=N/A speed=15.5x    frame=23009 fps=371 q=-0.0 size=N/A time=00:15:59.66 bitrate=N/A speed=15.5x    frame=23202 fps=371 q=-0.0 size=N/A time=00:16:07.71 bitrate=N/A speed=15.5x    frame=23401 fps=372 q=-0.0 size=N/A time=00:16:16.01 bitrate=N/A speed=15.5x    frame=23609 fps=372 q=-0.0 size=N/A time=00:16:24.69 bitrate=N/A speed=15.5x    frame=23798 fps=372 q=-0.0 size=N/A time=00:16:32.57 bitrate=N/A speed=15.5x    frame=24002 fps=372 q=-0.0 size=N/A time=00:16:41.08 bitrate=N/A speed=15.5x    frame=24194 fps=372 q=-0.0 size=N/A time=00:16:49.09 bitrate=N/A speed=15.5x    frame=24394 fps=372 q=-0.0 size=N/A time=00:16:57.43 bitrate=N/A speed=15.5x    frame=24598 fps=372 q=-0.0 size=N/A time=00:17:05.94 bitrate=N/A speed=15.5x    frame=24798 fps=372 q=-0.0 size=N/A time=00:17:14.28 bitrate=N/A speed=15.5x    frame=24991 fps=372 q=-0.0 size=N/A time=00:17:22.33 bitrate=N/A speed=15.5x    frame=25193 fps=372 q=-0.0 size=N/A time=00:17:30.75 bitrate=N/A speed=15.5x    frame=25389 fps=373 q=-0.0 size=N/A time=00:17:38.93 bitrate=N/A speed=15.5x    frame=25586 fps=373 q=-0.0 size=N/A time=00:17:47.14 bitrate=N/A speed=15.5x    frame=25789 fps=373 q=-0.0 size=N/A time=00:17:55.61 bitrate=N/A speed=15.5x    frame=25984 fps=373 q=-0.0 size=N/A time=00:18:03.74 bitrate=N/A speed=15.5x    frame=26184 fps=373 q=-0.0 size=N/A time=00:18:12.09 bitrate=N/A speed=15.6x    frame=26378 fps=373 q=-0.0 size=N/A time=00:18:20.18 bitrate=N/A speed=15.6x    frame=26585 fps=373 q=-0.0 size=N/A time=00:18:28.81 bitrate=N/A speed=15.6x    frame=26780 fps=373 q=-0.0 size=N/A time=00:18:36.94 bitrate=N/A speed=15.6x    frame=26968 fps=373 q=-0.0 size=N/A time=00:18:44.79 bitrate=N/A speed=15.6x    frame=27148 fps=373 q=-0.0 size=N/A time=00:18:52.29 bitrate=N/A speed=15.6x    frame=27339 fps=373 q=-0.0 size=N/A time=00:19:00.26 bitrate=N/A speed=15.6x    frame=27533 fps=373 q=-0.0 size=N/A time=00:19:08.35 bitrate=N/A speed=15.6x    frame=27727 fps=373 q=-0.0 size=N/A time=00:19:16.44 bitrate=N/A speed=15.6x    frame=27918 fps=373 q=-0.0 size=N/A time=00:19:24.41 bitrate=N/A speed=15.6x    frame=28112 fps=373 q=-0.0 size=N/A time=00:19:32.50 bitrate=N/A speed=15.6x    frame=28303 fps=373 q=-0.0 size=N/A time=00:19:40.47 bitrate=N/A speed=15.6x    frame=28500 fps=373 q=-0.0 size=N/A time=00:19:48.68 bitrate=N/A speed=15.6x    frame=28700 fps=373 q=-0.0 size=N/A time=00:19:57.02 bitrate=N/A speed=15.6x    frame=28874 fps=373 q=-0.0 size=N/A time=00:20:04.28 bitrate=N/A speed=15.6x    frame=29051 fps=373 q=-0.0 size=N/A time=00:20:11.66 bitrate=N/A speed=15.5x    frame=29236 fps=373 q=-0.0 size=N/A time=00:20:19.38 bitrate=N/A speed=15.5x    frame=29415 fps=372 q=-0.0 size=N/A time=00:20:26.85 bitrate=N/A speed=15.5x    frame=29597 fps=372 q=-0.0 size=N/A time=00:20:34.44 bitrate=N/A speed=15.5x    frame=29774 fps=372 q=-0.0 size=N/A time=00:20:41.82 bitrate=N/A speed=15.5x    frame=29952 fps=372 q=-0.0 size=N/A time=00:20:49.24 bitrate=N/A speed=15.5x    frame=30129 fps=372 q=-0.0 size=N/A time=00:20:56.63 bitrate=N/A speed=15.5x    frame=30319 fps=372 q=-0.0 size=N/A time=00:21:04.55 bitrate=N/A speed=15.5x    frame=30514 fps=372 q=-0.0 size=N/A time=00:21:12.68 bitrate=N/A speed=15.5x    frame=30712 fps=372 q=-0.0 size=N/A time=00:21:20.94 bitrate=N/A speed=15.5x    frame=30913 fps=372 q=-0.0 size=N/A time=00:21:29.32 bitrate=N/A speed=15.5x    frame=31100 fps=372 q=-0.0 size=N/A time=00:21:37.12 bitrate=N/A speed=15.5x    frame=31306 fps=372 q=-0.0 size=N/A time=00:21:45.72 bitrate=N/A speed=15.5x    frame=31489 fps=372 q=-0.0 size=N/A time=00:21:53.35 bitrate=N/A speed=15.5x    frame=31681 fps=372 q=-0.0 size=N/A time=00:22:01.36 bitrate=N/A speed=15.5x    frame=31874 fps=372 q=-0.0 size=N/A time=00:22:09.41 bitrate=N/A speed=15.5x    frame=32060 fps=372 q=-0.0 size=N/A time=00:22:17.16 bitrate=N/A speed=15.5x    frame=32257 fps=372 q=-0.0 size=N/A time=00:22:25.38 bitrate=N/A speed=15.5x    frame=32451 fps=372 q=-0.0 size=N/A time=00:22:33.47 bitrate=N/A speed=15.5x    frame=32642 fps=372 q=-0.0 size=N/A time=00:22:41.44 bitrate=N/A speed=15.5x    frame=32797 fps=372 q=-0.0 size=N/A time=00:22:47.90 bitrate=N/A speed=15.5x    frame=32971 fps=371 q=-0.0 size=N/A time=00:22:55.16 bitrate=N/A speed=15.5x    frame=33164 fps=371 q=-0.0 size=N/A time=00:23:03.21 bitrate=N/A speed=15.5x    frame=33346 fps=371 q=-0.0 size=N/A time=00:23:10.80 bitrate=N/A speed=15.5x    frame=33518 fps=371 q=-0.0 size=N/A time=00:23:17.97 bitrate=N/A speed=15.5x    frame=33668 fps=371 q=-0.0 size=N/A time=00:23:24.23 bitrate=N/A speed=15.5x    frame=33813 fps=370 q=-0.0 size=N/A time=00:23:30.28 bitrate=N/A speed=15.4x    frame=33951 fps=370 q=-0.0 size=N/A time=00:23:36.03 bitrate=N/A speed=15.4x    frame=34124 fps=369 q=-0.0 size=N/A time=00:23:43.25 bitrate=N/A speed=15.4x    frame=34285 fps=369 q=-0.0 size=N/A time=00:23:49.97 bitrate=N/A speed=15.4x    frame=34418 fps=368 q=-0.0 size=N/A time=00:23:55.51 bitrate=N/A speed=15.4x    frame=34601 fps=368 q=-0.0 size=N/A time=00:24:03.15 bitrate=N/A speed=15.4x    [Parsed_psnr_16 @ 000001f66851f780] PSNR y:48.525022 u:50.158883 v:50.200693 average:49.009753 min:37.662440 max:inf
[out#0/null @ 000001f65b068a00] video:14903KiB audio:271276KiB subtitle:0KiB other streams:0KiB global headers:0KiB muxing overhead: unknown
frame=34683 fps=368 q=-0.0 Lsize=N/A time=00:24:06.57 bitrate=N/A speed=15.4x    
